# xmcd
#
# Track frame offsets:
# 150
# 17585
# 37797
# 57685
# 82295
# 102722
# 130062
# 148150
# 166912
# 188135
# 210320
# 230797
# 250337
# 273157
# 296730
#
# Disc length: 4373 seconds
#
#
# Revision: 8
# Processed by: cddbd v1.5.1PL2 Copyright (c) Steve Scherf et al.
# Submitted via: CDLP Version 5
#
DISCID=e111130f
DTITLE=高中正義 - Takanaka The Best 30th
DYEAR=1900
DGENRE=Misc
TTITLE0=The Party's Just Begun
TTITLE1=Biscayne Blue
TTITLE2=Traumatic
TTITLE3=Aquaplanet
TTITLE4=Victroy Goal
TTITLE5=Crystal Memories
TTITLE6=Positive Touch
TTITLE7=Guitar Wonder
TTITLE8=Smoother
TTITLE9=Early Bird
TTITLE10=My Love
TTITLE11=Napoleon Funk
TTITLE12=Sora
TTITLE13=Bad Chicken
TTITLE14=Ready To Fly
EXTD=
EXTT0=
EXTT1=
EXTT2=
EXTT3=
EXTT4=
EXTT5=
EXTT6=
EXTT7=
EXTT8=
EXTT9=
EXTT10=
EXTT11=
EXTT12=
EXTT13=
EXTT14=
PLAYORDER=
